# xmcd
#
# Track frame offsets:
#	150
#	25638
#	41137
#	55410
#	94474
#	112665
#	136948
#	151889
#	202855
#	218677
#	238282
#	261499
#	290787
#	312548
#	335117
#
# Disc length: 4746 seconds
#
# Revision: 1
# Processed by: cddbd v1.5.2PL0 Copyright (c) Steve Scherf et al.
# Submitted via: audiograbber 1.83.01
#
DISCID=e512880f
DTITLE=Dave Mason - Pearly Queen
DYEAR=1900
DGENRE=
TTITLE0=Dave Mason - 40,000 Headmen
TTITLE1=Dave Mason - Pearly Queen
TTITLE2=Dave Mason - Rock And Roll Stew
TTITLE3=Dave Mason - Low Spark
TTITLE4=Dave Mason - Medicated Goo
TTITLE5=Dave Mason - Dear Mr Fantasy
TTITLE6=Dave Mason - We Just Disagree
TTITLE7=Dave Mason - Look At You Look At Me
TTITLE8=Dave Mason - Let It Go, Let It Flow
TTITLE9=Dave Mason - How Do I Get To Heaven
TTITLE10=Dave Mason - Good 2 U
TTITLE11=Dave Mason - Couldn' Have Took More Than You Gave
TTITLE12=Dave Mason - Only You Know And I Know
TTITLE13=Dave Mason - Feeling Alright
TTITLE14=Dave Mason - All Along The Watchtower
EXTD=
EXTT0=
EXTT1=
EXTT2=
EXTT3=
EXTT4=
EXTT5=
EXTT6=
EXTT7=
EXTT8=
EXTT9=
EXTT10=
EXTT11=
EXTT12=
EXTT13=
EXTT14=
PLAYORDER=
